<svg version="1.1" width="62.426" height="64.911" xmlns="http://www.w3.org/2000/svg" xmlns:xlink="http://www.w3.org/1999/xlink" id="svg4282" overflow="hidden"><defs id="defs4286"></defs><path d=" M 61.7195 4.658 C 62.6615 3.716 62.6615 2.175 61.7195 1.233 C 60.7775 0.291 59.2365 0.291 58.2945 1.233 L 51.4855 8.042 L 51.5425 8.107 C 46.3055 3.12 38.9595 0 30.8495 0 L 30.8495 0 C 22.9615 0 15.7905 2.948 10.5845 7.699 L 10.5905 7.692 L 4.1315 1.233 C 3.1895 0.291 1.6485 0.291 0.7065 1.233 C -0.2355 2.175 -0.2355 3.716 0.7065 4.658 L 7.3105 11.262 L 7.3695 11.198 C 4.0695 15.476 2.1205 20.681 2.1205 26.285 L 2.1205 64.911 L 59.5785 64.911 L 59.5785 26.284 C 59.5785 20.884 57.7735 15.852 54.6905 11.665 L 54.7005 11.676 L 61.7195 4.658 Z M 19.1325 23.621 C 16.9595 23.621 15.1975 21.859 15.1975 19.686 C 15.1975 17.513 16.9595 15.751 19.1325 15.751 C 21.3055 15.751 23.0675 17.513 23.0675 19.686 C 23.0675 21.859 21.3065 23.621 19.1325 23.621 Z M 42.5675 23.621 C 40.3945 23.621 38.6325 21.859 38.6325 19.686 C 38.6325 17.513 40.3945 15.751 42.5675 15.751 C 44.7405 15.751 46.5025 17.513 46.5025 19.686 C 46.5025 21.859 44.7415 23.621 42.5675 23.621 Z" id="path4" fill="#E8D300" fill-opacity="1"/></svg>