<svg version="1.1" width="84.639" height="84.639" xmlns="http://www.w3.org/2000/svg" xmlns:xlink="http://www.w3.org/1999/xlink" id="svg4248" overflow="hidden"><defs id="defs4252"></defs><path d=" M 42.3195 0 C 18.9539 0 0 18.9539 0 42.3195 C 0 65.6851 18.9539 84.639 42.3195 84.639 C 65.6851 84.639 84.639 65.6851 84.639 42.3195 C 84.639 18.9539 65.6851 0 42.3195 0 Z M 71.7307 59.8028 C 69.1164 58.3323 66.0119 57.1885 62.744 56.2081 C 63.3975 52.6134 63.8877 48.8553 63.8877 44.7704 L 76.4692 44.7704 C 75.979 50.3259 74.345 55.3911 71.7307 59.8028 Z M 47.875 75.979 C 46.8946 76.1424 45.9142 76.3058 44.7704 76.3058 L 44.7704 58.3323 C 49.0187 58.4957 52.9402 58.9859 56.6983 59.8028 C 54.7376 67.1556 51.633 73.0379 47.875 75.979 Z M 27.9407 59.8028 C 31.6988 58.9859 35.7837 58.4957 39.8686 58.3323 L 39.8686 76.4692 C 38.8882 76.4692 37.7444 76.3058 36.764 76.1424 C 33.0059 73.0379 29.9014 67.1556 27.9407 59.8028 Z M 8.16978 44.7704 L 20.7513 44.7704 C 20.9146 48.6919 21.2414 52.6134 21.895 56.2081 C 18.6271 57.1885 15.5226 58.4957 12.9083 59.8028 C 10.2939 55.3911 8.65997 50.3259 8.16978 44.7704 Z M 12.9083 24.8361 C 15.5226 26.3067 18.6271 27.4505 21.895 28.4309 C 21.2414 32.0256 20.7513 35.7837 20.7513 39.8686 L 8.16978 39.8686 C 8.65997 34.3131 10.2939 29.2478 12.9083 24.8361 Z M 36.764 8.65997 C 37.7444 8.49658 38.7248 8.33318 39.8686 8.33318 L 39.8686 26.4701 C 35.6203 26.3067 31.6988 25.8165 27.9407 24.9995 C 29.9014 17.4833 33.0059 11.6011 36.764 8.65997 Z M 56.6983 24.8361 C 52.9402 25.6531 48.8553 26.1433 44.7704 26.3067 L 44.7704 8.16979 C 45.7508 8.16979 46.8946 8.33318 47.875 8.49658 C 51.633 11.6011 54.7376 17.4833 56.6983 24.8361 Z M 44.7704 31.2086 C 49.3455 31.0452 53.7572 30.555 57.8421 29.5746 C 58.4957 32.8425 58.8224 36.2738 58.9859 39.7052 L 44.9338 39.7052 L 44.9338 31.2086 Z M 39.8686 31.2086 L 39.8686 39.8686 L 25.8165 39.8686 C 25.9799 36.2738 26.3067 32.8425 26.9603 29.738 C 30.8818 30.555 35.2935 31.0452 39.8686 31.2086 Z M 25.8165 44.7704 L 39.8686 44.7704 L 39.8686 53.4304 C 35.2935 53.5938 30.8818 54.084 26.7969 55.0644 C 26.3067 51.7964 25.8165 48.3651 25.8165 44.7704 Z M 44.7704 53.4304 L 44.7704 44.7704 L 58.8224 44.7704 C 58.6591 48.3651 58.3323 51.7964 57.6787 54.901 C 53.7572 54.084 49.3455 53.5938 44.7704 53.4304 Z M 63.7243 39.8686 C 63.5609 35.9471 63.2341 32.0256 62.5806 28.4309 C 65.8485 27.4505 68.953 26.1433 71.5673 24.8361 C 74.1816 29.2478 75.979 34.4765 76.3058 39.8686 L 63.7243 39.8686 Z M 68.7896 20.7513 C 66.6655 21.895 64.2145 22.8754 61.4368 23.6924 C 60.1296 18.7905 58.3323 14.5422 56.2081 11.1109 C 61.2734 13.3984 65.5217 16.6664 68.7896 20.7513 Z M 28.2675 11.1109 C 26.1433 14.5422 24.346 18.7905 23.0388 23.6924 C 20.4245 22.8754 17.9735 21.895 15.686 20.7513 C 19.1173 16.6664 23.3656 13.3984 28.2675 11.1109 Z M 15.8494 63.8877 C 17.9735 62.744 20.4245 61.7636 23.2022 60.9466 C 24.5094 65.8485 26.3067 70.0968 28.4308 73.5281 C 23.3656 71.2405 19.1173 67.9726 15.8494 63.8877 Z M 56.3715 73.5281 C 58.4957 70.0968 60.293 65.8485 61.6002 60.9466 C 64.2145 61.7636 66.6655 62.744 68.953 63.8877 C 65.5217 67.9726 61.2734 71.2405 56.3715 73.5281 Z" id="path6-6" stroke="none" fill="#E0D102" fill-opacity="1"/></svg>