<svg version="1.1" width="54.3164" height="86.7157" xmlns="http://www.w3.org/2000/svg" xmlns:xlink="http://www.w3.org/1999/xlink" id="svg4216" overflow="hidden"><defs id="defs4220"></defs><g id="g4" stroke="#E0D102" stroke-opacity="1" fill="#E0D102" fill-opacity="1" transform="matrix(0.952919,0,0,0.952919,-20.4878,-911.812)"><path d=" M 29 957.362 C 25.1739 957.362 22 960.536 22 964.362 L 22 1040.36 C 22 1044.19 25.1739 1047.36 29 1047.36 L 71 1047.36 C 74.8261 1047.36 78 1044.19 78 1040.36 L 78 964.362 C 78 960.536 74.8261 957.362 71 957.362 Z M 29 963.362 L 71 963.362 C 71.6059 963.362 72 963.756 72 964.362 L 72 967.362 L 28 967.362 L 28 964.362 C 28 963.756 28.3941 963.362 29 963.362 Z M 28 973.362 L 72 973.362 L 72 1025.36 L 28 1025.36 Z M 49.625 980.393 C 49.2277 980.452 48.8426 980.592 48.5 980.8 L 34.5 988.8 C 33.5862 989.311 32.9813 990.323 32.9688 991.362 L 32.9688 1007.36 C 32.9813 1008.4 33.5862 1009.41 34.5 1009.92 L 48.5 1017.92 C 48.8891 1018.15 49.3306 1018.29 49.7813 1018.33 C 50.3779 1018.37 50.9847 1018.22 51.5 1017.92 L 65.5 1009.92 C 66.4138 1009.41 67.0187 1008.4 67.0313 1007.36 L 67.0313 991.362 C 67.0186 990.323 66.4138 989.311 65.5 988.8 L 51.5 980.8 C 50.9413 980.469 50.2723 980.324 49.625 980.393 Z M 50 986.8 L 57.9688 991.331 L 50 995.893 L 42.0313 991.331 Z M 39 996.518 L 47 1001.11 L 47 1010.21 L 39 1005.67 Z M 61 996.518 L 61 1005.67 L 53 1010.21 L 53 1001.11 Z M 28 1031.36 L 72 1031.36 L 72 1040.36 C 72 1040.97 71.6059 1041.36 71 1041.36 L 29 1041.36 C 28.3941 1041.36 28 1040.97 28 1040.36 Z M 43 1033.36 C 41.3432 1033.36 40 1034.71 40 1036.36 C 40 1038.02 41.3432 1039.36 43 1039.36 L 57 1039.36 C 58.6568 1039.36 60 1038.02 60 1036.36 C 60 1034.71 58.6568 1033.36 57 1033.36 Z" id="path6" color="#000000" stroke="#E0D102" stroke-opacity="1" fill="#E0D102" fill-opacity="1" direction="ltr" visibility="visible" display="inline" overflow="visible"/></g></svg>