<svg version="1.1" width="53.0391" height="53.0391" xmlns="http://www.w3.org/2000/svg" xmlns:xlink="http://www.w3.org/1999/xlink" id="svg4160" overflow="hidden"><defs id="defs4164"></defs><path d=" M 0 0 L 0 1.75781 L 0 23.5254 L 23.5254 23.5254 L 23.5254 0 L 0 0 Z M 3.51562 3.51562 L 20.0078 3.51562 L 20.0078 20.0078 L 3.51562 20.0078 L 3.51562 3.51562 Z" id="path4" color="#000000" stroke="none" stroke-width="3.517" stroke-linecap="butt" stroke-linejoin="miter" stroke-miterlimit="4" stroke-dasharray="" stroke-dashoffset="1" stroke-opacity="1" fill="#1B2D59" fill-rule="nonzero" fill-opacity="1" clip-rule="nonzero" font-family="arial" font-style="normal" font-variant="normal" font-weight="400" font-stretch="normal" font-size="12" text-anchor="start" letter-spacing="0" word-spacing="0" direction="ltr" writing-mode="lr-tb" visibility="visible" display="inline" overflow="visible" text-decoration="none"/><path d=" M 29.5137 0 L 29.5137 1.75781 L 29.5137 23.5254 L 53.0391 23.5254 L 53.0391 -3.55271e-15 L 29.5137 -3.55271e-15 Z M 33.0313 3.51562 L 49.5234 3.51562 L 49.5234 20.0078 L 33.0313 20.0078 L 33.0313 3.51562 Z" id="path6" color="#000000" stroke="none" stroke-width="3.517" stroke-linecap="butt" stroke-linejoin="miter" stroke-miterlimit="4" stroke-dasharray="" stroke-dashoffset="1" stroke-opacity="1" fill="#1B2D59" fill-rule="nonzero" fill-opacity="1" clip-rule="nonzero" font-family="arial" font-style="normal" font-variant="normal" font-weight="400" font-stretch="normal" font-size="12" text-anchor="start" letter-spacing="0" word-spacing="0" direction="ltr" writing-mode="lr-tb" visibility="visible" display="inline" overflow="visible" text-decoration="none"/><path d=" M 29.5137 29.5137 L 29.5137 31.2734 L 29.5137 53.0391 L 53.0391 53.0391 L 53.0391 29.5137 L 29.5137 29.5137 Z M 33.0313 33.0313 L 49.5234 33.0313 L 49.5234 49.5234 L 33.0313 49.5234 L 33.0313 33.0313 Z" id="path8" color="#000000" stroke="none" stroke-width="3.517" stroke-linecap="butt" stroke-linejoin="miter" stroke-miterlimit="4" stroke-dasharray="" stroke-dashoffset="1" stroke-opacity="1" fill="#1B2D59" fill-rule="nonzero" fill-opacity="1" clip-rule="nonzero" font-family="arial" font-style="normal" font-variant="normal" font-weight="400" font-stretch="normal" font-size="12" text-anchor="start" letter-spacing="0" word-spacing="0" direction="ltr" writing-mode="lr-tb" visibility="visible" display="inline" overflow="visible" text-decoration="none"/><path d=" M 0 29.5137 L 0 31.2734 L 0 53.0391 L 23.5254 53.0391 L 23.5254 29.5137 L 0 29.5137 Z M 3.51562 33.0313 L 20.0078 33.0313 L 20.0078 49.5234 L 3.51562 49.5234 L 3.51562 33.0313 Z" id="path10" color="#000000" stroke="none" stroke-width="3.517" stroke-linecap="butt" stroke-linejoin="miter" stroke-miterlimit="4" stroke-dasharray="" stroke-dashoffset="1" stroke-opacity="1" fill="#1B2D59" fill-rule="nonzero" fill-opacity="1" clip-rule="nonzero" font-family="arial" font-style="normal" font-variant="normal" font-weight="400" font-stretch="normal" font-size="12" text-anchor="start" letter-spacing="0" word-spacing="0" direction="ltr" writing-mode="lr-tb" visibility="visible" display="inline" overflow="visible" text-decoration="none"/></svg>