<svg version="1.1" width="88.2646" height="88.2973" xmlns="http://www.w3.org/2000/svg" xmlns:xlink="http://www.w3.org/1999/xlink" id="svg4144" overflow="hidden"><defs id="defs4148"></defs><g id="g4" fill="#FFFFFF" fill-opacity="1" transform="matrix(1,0,0,1,-5.86771,-958.214)"><path d=" M 71.6784 958.263 C 65.0406 957.837 58.2405 960.169 53.1784 965.232 C 46.9529 971.457 45.1085 980.238 47.1784 988.2 L 9.36593 1026.04 C 4.70153 1030.71 4.70173 1038.35 9.36593 1043.01 C 14.03 1047.68 21.6705 1047.68 26.3346 1043.01 L 64.1784 1005.17 C 72.1382 1007.23 80.9244 1005.39 87.1472 999.169 C 93.8968 992.42 95.7403 982.618 92.7409 974.169 C 92.1849 972.608 90.4687 971.793 88.9078 972.35 C 88.4932 972.497 88.1161 972.734 87.8034 973.044 L 79.3659 981.482 C 76.9788 983.869 73.253 983.869 70.8659 981.482 C 68.4788 979.094 68.4788 975.4 70.8659 973.013 L 79.3034 964.575 C 80.4822 963.411 80.4936 961.511 79.329 960.332 C 79.0061 960.005 78.6125 959.757 78.1784 959.607 C 76.0661 958.857 73.891 958.405 71.6784 958.263 Z M 71.1159 964.263 L 66.6159 968.763 C 61.9518 973.427 61.9518 981.067 66.6159 985.732 C 71.28 990.396 78.9205 990.396 83.5846 985.732 L 88.0846 981.263 C 88.3579 986.175 86.6662 991.15 82.8972 994.919 C 77.8079 1000.01 70.4912 1001.39 64.1472 999.138 C 63.0601 998.746 61.8446 999.013 61.0222 999.825 L 22.0846 1038.76 C 19.6974 1041.15 15.9717 1041.15 13.5846 1038.76 C 11.1975 1036.38 11.1974 1032.65 13.5846 1030.26 L 52.5222 991.357 C 53.345 990.541 53.6248 989.325 53.2409 988.232 C 50.9888 981.887 52.3389 974.571 57.4284 969.482 C 61.1977 965.712 66.2029 963.989 71.1159 964.263 Z" id="path6" color="#000000" stroke="none" stroke-width="1" stroke-dasharray="" stroke-dashoffset="1" fill="#1B2D59" fill-opacity="1" direction="ltr" visibility="visible" display="inline" overflow="visible"/></g></svg>