<?xml version="1.0" encoding="UTF-8" standalone="no"?>
<svg
   xmlns:dc="http://purl.org/dc/elements/1.1/"
   xmlns:cc="http://creativecommons.org/ns#"
   xmlns:rdf="http://www.w3.org/1999/02/22-rdf-syntax-ns#"
   xmlns:svg="http://www.w3.org/2000/svg"
   xmlns="http://www.w3.org/2000/svg"
   xmlns:sodipodi="http://sodipodi.sourceforge.net/DTD/sodipodi-0.dtd"
   xmlns:inkscape="http://www.inkscape.org/namespaces/inkscape"
   version="1.1"
   x="0px"
   y="0px"
   viewBox="0 0 98.398308 98.398308"
   id="svg2"
   inkscape:version="0.91 r13725"
   sodipodi:docname="Hist1.svg"
   width="98.398308"
   height="98.398308">
  <metadata
     id="metadata16">
    <rdf:RDF>
      <cc:Work
         rdf:about="">
        <dc:format>image/svg+xml</dc:format>
        <dc:type
           rdf:resource="http://purl.org/dc/dcmitype/StillImage" />
        <dc:title />
      </cc:Work>
    </rdf:RDF>
  </metadata>
  <defs
     id="defs14" />
  <sodipodi:namedview
     pagecolor="#ffffff"
     bordercolor="#666666"
     borderopacity="1"
     objecttolerance="10"
     gridtolerance="10"
     guidetolerance="10"
     inkscape:pageopacity="0"
     inkscape:pageshadow="2"
     inkscape:window-width="1462"
     inkscape:window-height="841"
     id="namedview12"
     showgrid="false"
     fit-margin-top="0"
     fit-margin-left="0"
     fit-margin-right="0"
     fit-margin-bottom="0"
     inkscape:zoom="1.888"
     inkscape:cx="18.954053"
     inkscape:cy="19.464936"
     inkscape:window-x="66"
     inkscape:window-y="-8"
     inkscape:window-maximized="1"
     inkscape:current-layer="svg2" />
  <g
     transform="matrix(1.0977303,0,0,1.0977303,-6.5348202,-1050.9776)"
     id="g4"
     style="fill:#1b2d59;fill-opacity:1">
    <path
       style="color:#000000;text-indent:0;text-transform:none;direction:ltr;block-progression:tb;baseline-shift:baseline;display:inline;overflow:visible;visibility:visible;fill:#1b2d59;fill-opacity:1;fill-rule:evenodd;stroke:none;marker:none;enable-background:accumulate"
       d="m 20.742699,958.33751 c -2.6409,0.009 -5.24,0.15213 -7.7247,0.29531 -0.3753,-0.0375 -0.7609,0.0339 -1.0978,0.20348 -0.337,0.16952 -0.6242,0.43654 -0.8178,0.76027 -0.0152,0.0243 -0.0298,0.0489 -0.044,0.0738 -0.0053,0.0101 -0.0105,0.0202 -0.0157,0.0303 -0.1758,0.32705 -0.258,0.70379 -0.2344,1.07437 0.0236,0.37059 0.1529,0.73385 0.3688,1.03595 4.0949,8.13388 8.9648,17.6292 18.4538,21.86687 0.0087,0.004 0.0175,0.008 0.0262,0.0113 5.5601,2.38882 11.6417,1.43775 16.7563,-0.83218 1.7021,1.04834 3.4043,2.09665 5.1065,3.145 l 0,24.27492 -17.95,0 0,6e-4 c -1.7287,-0.042 -3.3012,0.6982 -4.2643,1.8203 -0.9772,1.1384 -1.3971,2.5543 -1.3966,3.9394 10e-4,1.3851 0.4217,2.8008 1.4,3.9378 0.9633,1.1196 2.5351,1.8564 4.2609,1.8113 l 0,6e-4 1.4466,0 c 0.9182,5.5319 1.8362,11.0637 2.7544,16.5956 0.012,0.072 0.0279,0.1426 0.0475,0.2125 0.1907,0.6803 0.2169,2.1473 0.599,3.7219 0.1911,0.7872 0.4988,1.6547 1.1572,2.435 0.6585,0.7802 1.6936,1.3714 2.831,1.5584 0.1072,0.018 0.2158,0.027 0.3243,0.027 l 17.82,0 c 0.0448,0 0.0895,0 0.1341,0 0.7514,-0.051 2.2286,0.1756 3.86,-0.059 0.8157,-0.1174 1.7479,-0.3844 2.5603,-1.0688 0.8021,-0.6756 1.3433,-1.7309 1.5178,-2.8665 l 0,0 c 1.1492,-6.8503 2.2984,-13.7007 3.4475,-20.551 l 0.5013,0 c 1.7593,0.312 3.4827,-0.2262 4.5968,-1.259 1.165,-1.08 1.7392,-2.5288 1.8738,-3.9794 0.1346,-1.4506 -0.1629,-2.9804 -1.1178,-4.2503 -0.943,-1.254 -2.6294,-2.091 -4.4834,-2.0213 l -17.9207,0 0,-6.8012 c 2.0313,-1.4204 4.0625,-2.841 6.0938,-4.2615 3.443,1.4573 7.4215,2.1955 11.3328,1.0315 0.0166,0 0.033,-0.01 0.0494,-0.015 8.3826,-2.73328 12.508,-10.84787 15.8231,-17.42244 0.221,-0.30686 0.3523,-0.67749 0.3738,-1.055 0.0215,-0.37752 -0.0669,-0.76065 -0.2516,-1.09062 -0.0124,-0.0234 -0.0254,-0.0465 -0.0388,-0.0694 -0.0069,-0.0111 -0.014,-0.0222 -0.0212,-0.0331 -0.1955,-0.3152 -0.4807,-0.57415 -0.8132,-0.73854 -0.3325,-0.1644 -0.7114,-0.23372 -1.0806,-0.19771 -7.3526,-0.41723 -16.4481,-0.90385 -23.0072,4.99375 -0.0128,0.0115 -0.0255,0.0232 -0.0381,0.035 -3.2663,3.09406 -4.5708,7.41395 -4.8844,11.46812 -1.1792,0.82467 -2.3585,1.64939 -3.5378,2.47407 l 0,-30.9875 c 0.0038,-0.26416 -0.0455,-0.52895 -0.144,-0.77409 -0.0985,-0.24513 -0.2462,-0.47039 -0.4316,-0.65851 -0.1855,-0.18813 -0.4087,-0.33895 -0.6524,-0.44091 -0.2437,-0.10196 -0.5078,-0.15497 -0.772,-0.15497 -0.2641,0 -0.5282,0.053 -0.7719,0.15497 -0.2438,0.10196 -0.4669,0.25278 -0.6524,0.44091 -0.1855,0.18812 -0.3331,0.41338 -0.4316,0.65851 -0.0985,0.24514 -0.1478,0.50993 -0.1441,0.77409 l 0,13.69718 c -0.8551,-0.52665 -1.7102,-1.05335 -2.5653,-1.58 -0.4051,-5.89724 -2.5843,-12.16957 -7.7544,-16.02968 -0.0075,-0.006 -0.0151,-0.0113 -0.0228,-0.0169 -6.1136,-4.43074 -13.4128,-5.36261 -20.4347,-5.33999 z m -0.0378,4.02625 c 6.5984,0.001 13.0294,0.86782 18.1094,4.54156 3.1428,2.35021 4.9807,6.09946 5.7628,10.12281 -3.5528,-2.18811 -7.1056,-4.37625 -10.6584,-6.56437 -0.2229,-0.14174 -0.4743,-0.23868 -0.7347,-0.28338 -0.2604,-0.0447 -0.5296,-0.0371 -0.7871,0.0222 -0.2575,0.0593 -0.5029,0.1702 -0.7176,0.32426 -0.2146,0.15406 -0.3982,0.35113 -0.5368,0.5761 -0.1385,0.22497 -0.2319,0.47765 -0.2728,0.73866 -0.041,0.26101 -0.0296,0.53014 0.0333,0.78674 0.063,0.25659 0.1774,0.50046 0.3345,0.71287 0.1571,0.21242 0.3568,0.39322 0.5837,0.52854 3.4269,2.11054 6.8537,4.22102 10.2806,6.33156 -3.6438,1.1073 -7.4895,1.2577 -10.8506,-0.18094 -7.0782,-3.16636 -11.4684,-10.27141 -15.2388,-17.53687 1.5634,-0.0707 3.1323,-0.12001 4.6925,-0.11969 z m 60.7747,21.0625 c 0.8285,0.004 1.6607,0.0257 2.4922,0.0569 -2.9984,5.67307 -6.5477,11.08134 -12.1872,12.93469 -1.9345,0.57057 -4.038,0.4821 -6.1094,-0.0438 1.7104,-1.19603 3.4207,-2.39209 5.131,-3.58812 0.2174,-0.14888 0.4048,-0.34118 0.5481,-0.56225 0.1433,-0.22106 0.2423,-0.47071 0.2895,-0.7299 0.0471,-0.25919 0.0424,-0.52771 -0.0138,-0.78507 -0.0563,-0.25737 -0.164,-0.50339 -0.315,-0.71927 -0.1509,-0.21589 -0.3451,-0.40149 -0.5675,-0.54263 -0.2224,-0.14113 -0.473,-0.23771 -0.7327,-0.28235 -0.2596,-0.0446 -0.5281,-0.0373 -0.7849,0.0214 -0.2568,0.0587 -0.5018,0.16884 -0.7162,0.32191 -1.6193,1.13237 -3.2385,2.26482 -4.8578,3.39719 0.5791,-2.06383 1.5549,-3.93635 3.0193,-5.33125 3.8501,-3.4474 9.2425,-4.17527 14.8044,-4.1475 z m -7.6484,30.84344 c 0.5501,0.011 0.7031,0.1761 0.8959,0.4325 0.2204,0.2931 0.3879,0.8728 0.3319,1.4766 -0.056,0.6038 -0.3279,1.1538 -0.6103,1.4156 -0.2824,0.2618 -0.5001,0.4066 -1.2531,0.2397 -0.1419,-0.031 -0.2872,-0.047 -0.4326,-0.047 l -39.1931,0 c -0.0267,0 -0.0535,5e-4 -0.0803,0 -0.6818,0.027 -0.9066,-0.1411 -1.1487,-0.4225 -0.2422,-0.2814 -0.4317,-0.7901 -0.4319,-1.33 0,-0.5399 0.1888,-1.05 0.4319,-1.3331 0.243,-0.2832 0.47,-0.4532 1.1537,-0.4275 0.0251,10e-4 0.0502,0 0.0753,0 l 39.9,0 c 0.0333,0 0.0665,-8e-4 0.0997,0 0.0961,0 0.183,-0.01 0.2616,0 z m -34.76,7.5172 28.9428,0 c -1.1122,6.6297 -2.2244,13.2594 -3.3366,19.8891 -0.0024,0.014 -0.0047,0.029 -0.0068,0.044 -0.0607,0.4178 -0.1151,0.4017 -0.1432,0.4253 -0.0281,0.024 -0.1772,0.1147 -0.5528,0.1688 -0.7377,0.1061 -2.0487,-0.064 -3.4812,0.023 l -17.571,0 c -0.1998,-0.044 -0.2229,-0.084 -0.2909,-0.1647 -0.0816,-0.097 -0.2188,-0.3535 -0.3269,-0.7987 -0.2103,-0.8667 -0.2056,-2.2456 -0.6025,-3.736 -0.8769,-5.2835 -1.754,-10.5671 -2.6309,-15.8506 z"
       visibility="visible"
       display="inline"
       overflow="visible"
       id="path6"
       inkscape:connector-curvature="0" />
  </g>
</svg>
