<svg version="1.1" width="92" height="92.0001" xmlns="http://www.w3.org/2000/svg" xmlns:xlink="http://www.w3.org/1999/xlink" id="svg4164" overflow="hidden"><defs id="defs4168"></defs><g id="g4" fill="#FFFFFF" fill-opacity="1" transform="matrix(1,0,0,1,-3.99998,-956.362)"><path d=" M 59 956.362 C 50.7513 956.362 44 963.113 44 971.362 C 44 972.405 44.1998 973.379 44.4062 974.362 L 25 974.362 C 23.3432 974.362 22.0002 975.705 22 977.362 L 22 996.768 C 21.0239 996.565 20.0351 996.362 19 996.362 C 10.7513 996.362 3.99998 1003.11 3.99998 1011.36 C 3.99998 1019.61 10.7513 1026.36 19 1026.36 C 20.0355 1026.36 21.0236 1026.13 22 1025.92 L 22 1045.36 C 22.0002 1047.02 23.3432 1048.36 25 1048.36 L 50.0625 1048.36 C 51.7195 1048.37 53.0687 1047.03 53.076 1045.38 C 53.0793 1044.63 52.8073 1043.92 52.3125 1043.36 C 50.8809 1041.76 50 1039.68 50 1037.36 C 50 1032.36 53.9939 1028.36 59 1028.36 C 64.0061 1028.36 68 1032.36 68 1037.36 C 68 1039.68 67.1191 1041.76 65.6875 1043.36 C 64.5831 1044.6 64.6892 1046.49 65.9245 1047.6 C 66.4779 1048.09 67.1951 1048.37 67.9375 1048.36 L 93 1048.36 C 94.6568 1048.36 95.9998 1047.02 96 1045.36 L 96 1020.3 C 96.0073 1018.64 94.67 1017.29 93.013 1017.29 C 92.2706 1017.28 91.5534 1017.55 91 1018.05 C 89.4016 1019.48 87.3199 1020.36 85 1020.36 C 79.9939 1020.36 76 1016.37 76 1011.36 C 76 1006.36 79.9939 1002.36 85 1002.36 C 87.3199 1002.36 89.4016 1003.21 91 1004.64 C 92.2353 1005.75 94.132 1005.64 95.2364 1004.41 C 95.7241 1003.86 95.9956 1003.16 96 1002.42 L 96 977.362 C 95.9998 975.705 94.6568 974.362 93 974.362 L 73.5938 974.362 C 73.8002 973.379 74 972.405 74 971.362 C 74 963.113 67.2487 956.362 59 956.362 Z M 59 962.362 C 64.0061 962.362 68 966.356 68 971.362 C 68 973.003 67.5577 974.492 66.7812 975.831 C 65.9356 977.256 66.4054 979.097 67.8305 979.942 C 68.2978 980.219 68.8316 980.365 69.375 980.362 L 90 980.362 L 90 997.237 C 88.4282 996.677 86.7553 996.362 85 996.362 C 76.7513 996.362 70 1003.11 70 1011.36 C 70 1019.61 76.7513 1026.36 85 1026.36 C 86.7553 1026.36 88.4282 1026.02 90 1025.46 L 90 1042.36 L 73.0938 1042.36 C 73.6548 1040.79 74 1039.12 74 1037.36 C 74 1029.11 67.2487 1022.36 59 1022.36 C 50.7513 1022.36 44 1029.11 44 1037.36 C 44 1039.12 44.3452 1040.79 44.9062 1042.36 L 28 1042.36 L 28 1021.74 C 27.9973 1020.08 26.6519 1018.74 24.9949 1018.74 C 24.47 1018.74 23.9546 1018.88 23.5 1019.14 C 22.1607 1019.92 20.6412 1020.36 19 1020.36 C 13.9939 1020.36 9.99998 1016.37 9.99998 1011.36 C 9.99998 1006.36 13.9939 1002.36 19 1002.36 C 20.6412 1002.36 22.1607 1002.8 23.5 1003.58 C 24.9351 1004.41 26.77 1003.92 27.5983 1002.48 C 27.8606 1002.03 27.9991 1001.51 28 1000.99 L 28 980.362 L 48.625 980.362 C 50.282 980.37 51.6313 979.032 51.6388 977.375 C 51.6412 976.832 51.4961 976.298 51.2188 975.831 C 50.4423 974.492 50 973.003 50 971.362 C 50 966.356 53.9939 962.362 59 962.362 Z" id="path6" color="#000000" stroke="none" stroke-width="1" stroke-dasharray="" stroke-dashoffset="1" fill="#1B2D59" fill-opacity="1" direction="ltr" visibility="visible" display="inline" overflow="visible"/></g></svg>