<svg version="1.1" width="92.0164" height="91.9797" xmlns="http://www.w3.org/2000/svg" xmlns:xlink="http://www.w3.org/1999/xlink" id="svg4154" overflow="hidden"><defs id="defs4158"></defs><g id="g4" fill="#FFFFFF" fill-opacity="1" transform="matrix(1,0,0,1,-3.99178,-956.372)"><path d=" M 49.7188 956.386 C 49.2154 956.432 48.7317 956.604 48.3125 956.886 L 43.75 960.011 L 38.375 958.855 C 37.1725 958.62 35.9477 959.139 35.2813 960.168 L 32.2813 964.761 L 26.8438 965.793 C 25.6204 966.018 24.6632 966.975 24.4375 968.199 L 23.4063 973.636 L 18.8125 976.636 C 17.7722 977.307 17.2509 978.549 17.5 979.761 L 18.6563 985.136 L 15.5313 989.699 C 14.8385 990.717 14.8385 992.055 15.5313 993.074 L 18.6563 997.636 L 17.5 1002.98 C 17.2509 1004.19 17.7722 1005.43 18.8125 1006.11 L 20.7813 1007.39 L 4.46875 1032.76 C 3.57231 1034.15 3.97534 1036.01 5.36893 1036.91 C 6.02779 1037.33 6.82627 1037.48 7.59375 1037.32 L 19.875 1034.86 L 23.125 1046.2 C 23.5929 1047.79 25.2608 1048.7 26.8504 1048.23 C 27.564 1048.02 28.1742 1047.55 28.5625 1046.92 L 42.9688 1022.89 L 43.75 1022.73 L 48.3125 1025.86 C 48.8088 1026.2 49.3969 1026.38 50 1026.39 C 50.6031 1026.38 51.1912 1026.2 51.6875 1025.86 L 56.25 1022.73 L 57.0313 1022.89 L 71.4375 1046.92 C 72.3023 1048.33 74.1492 1048.78 75.5626 1047.91 C 76.1972 1047.52 76.6649 1046.91 76.875 1046.2 L 80.125 1034.86 L 92.4063 1037.32 C 94.0296 1037.66 95.615 1036.61 95.9473 1034.99 C 96.1044 1034.22 95.9551 1033.42 95.5313 1032.76 L 79.2188 1007.42 L 81.2188 1006.11 C 82.2591 1005.43 82.7804 1004.19 82.5313 1002.98 L 81.375 997.636 L 84.5 993.074 C 85.1927 992.055 85.1927 990.717 84.5 989.699 L 81.375 985.136 L 82.5313 979.761 C 82.7804 978.549 82.2591 977.307 81.2188 976.636 L 76.625 973.636 L 75.5938 968.199 C 75.3681 966.975 74.4109 966.018 73.1875 965.793 L 67.75 964.761 L 64.75 960.168 C 64.0789 959.127 62.8377 958.606 61.625 958.855 L 56.25 960.011 L 51.6875 956.886 C 51.1093 956.496 50.4132 956.319 49.7188 956.386 Z M 50 963.011 L 53.9063 965.668 C 54.5807 966.133 55.4162 966.302 56.2188 966.136 L 60.875 965.168 L 63.4688 969.136 C 63.9103 969.818 64.6094 970.292 65.4063 970.449 L 70.0625 971.324 L 70.9375 975.98 C 71.0947 976.777 71.5683 977.476 72.25 977.918 L 76.2188 980.511 L 75.25 985.168 C 75.0839 985.97 75.2532 986.806 75.7188 987.48 L 78.375 991.386 L 75.7188 995.293 C 75.2532 995.967 75.0839 996.803 75.25 997.605 L 76.2188 1002.23 L 72.25 1004.82 C 71.5683 1005.27 71.0947 1005.96 70.9375 1006.76 L 70.0625 1011.42 L 65.4063 1012.29 C 64.6094 1012.45 63.9103 1012.92 63.4688 1013.61 L 60.875 1017.57 L 56.2188 1016.61 C 55.4162 1016.44 54.5807 1016.61 53.9063 1017.07 L 50 1019.73 L 46.0938 1017.07 C 45.4193 1016.61 44.5838 1016.44 43.7813 1016.61 L 39.125 1017.57 L 36.5313 1013.61 C 36.0969 1012.93 35.4104 1012.46 34.625 1012.29 L 29.9688 1011.42 L 29.0938 1006.76 C 28.9365 1005.96 28.463 1005.27 27.7813 1004.82 L 23.8125 1002.23 L 24.7813 997.605 C 24.9474 996.803 24.778 995.967 24.3125 995.293 L 21.6563 991.386 L 24.3125 987.48 C 24.778 986.806 24.9474 985.97 24.7813 985.168 L 23.8125 980.511 L 27.7813 977.918 C 28.463 977.476 28.9365 976.777 29.0938 975.98 L 29.9688 971.324 L 34.625 970.449 C 35.4104 970.284 36.0969 969.811 36.5313 969.136 L 39.125 965.168 L 43.7813 966.136 C 44.5838 966.302 45.4193 966.133 46.0938 965.668 L 50 963.011 Z M 36 976.386 C 34.3432 976.386 33 977.729 33 979.386 C 33 981.043 34.3432 982.386 36 982.386 L 64 982.386 C 65.6569 982.386 67 981.043 67 979.386 C 67 977.729 65.6569 976.386 64 976.386 L 36 976.386 Z M 31 988.386 C 29.3431 988.386 28 989.729 28 991.386 C 28 993.043 29.3431 994.386 31 994.386 L 69 994.386 C 70.6569 994.386 72 993.043 72 991.386 C 72 989.729 70.6569 988.386 69 988.386 L 31 988.386 Z M 36 1000.39 C 34.3432 1000.39 33 1001.73 33 1003.39 C 33 1005.04 34.3432 1006.39 36 1006.39 L 64 1006.39 C 65.6569 1006.39 67 1005.04 67 1003.39 C 67 1001.73 65.6569 1000.39 64 1000.39 L 36 1000.39 Z M 24.1875 1013.2 L 24.4375 1014.54 C 24.6632 1015.77 25.6204 1016.72 26.8438 1016.95 L 32.2813 1017.98 L 35.2813 1022.57 C 35.4265 1022.82 35.6054 1023.04 35.8125 1023.23 L 26.9688 1037.92 L 24.875 1030.54 C 24.4487 1029.04 22.9395 1028.11 21.4063 1028.42 L 13.375 1030.01 L 24.1875 1013.2 Z M 75.8438 1013.26 L 86.625 1030.01 L 78.5938 1028.42 C 77.0605 1028.11 75.5513 1029.04 75.125 1030.54 L 73.0313 1037.92 L 64.1875 1023.23 C 64.4057 1023.04 64.5952 1022.82 64.75 1022.57 L 67.75 1017.98 L 73.1875 1016.95 C 74.4109 1016.72 75.3681 1015.77 75.5938 1014.54 L 75.8438 1013.26 Z" id="path6" color="#000000" stroke="none" stroke-width="1" stroke-dasharray="" stroke-dashoffset="1" fill="#1B2D59" fill-opacity="1" direction="ltr" visibility="visible" display="inline" overflow="visible"/></g></svg>