<svg version="1.1" width="176.1" height="176" xmlns="http://www.w3.org/2000/svg" xmlns:xlink="http://www.w3.org/1999/xlink" id="svg4148" overflow="hidden"><defs id="defs4152"></defs><path d=" M 59.8 40.7 C 63.7 36.2 65.8 30.6 65.8 24.6 C 65.7 11.1 54.7 0 41.1 0 C 27.5 0 16.4 11.1 16.4 24.6 C 16.4 30.6 18.5 36.3 22.4 40.7 C 8.9 46.7 0 60.3 0 75 L 0 81 L 82.1 81 L 82.1 75.1 C 82.1 60.3 73.2 46.7 59.8 40.7 Z M 37.5 46.9 L 44.5 46.9 C 58.7 46.9 70.7 57.6 72.4 71.5 L 9.6 71.5 C 11.4 57.7 23.4 46.9 37.5 46.9 Z M 41.1 9.4 C 49.5 9.4 56.4 16.2 56.4 24.7 C 56.4 33.2 49.5 39.9 41.1 39.9 C 32.7 39.9 25.8 33.1 25.8 24.6 C 25.8 16.1 32.7 9.4 41.1 9.4 Z" id="path4" stroke="none" stroke-width="1" stroke-dasharray="" stroke-dashoffset="1" fill="#1B2D59" fill-opacity="1"/><path d=" M 153.6 135.8 C 157.5 131.3 159.6 125.7 159.6 119.7 C 159.6 106.1 148.5 95.1 135 95.1 C 121.5 95.1 110.4 106.2 110.4 119.7 C 110.4 125.7 112.5 131.4 116.4 135.8 C 102.9 141.8 94 155.4 94 170.1 L 94 176 L 176.1 176 L 176.1 170.1 C 176 155.3 167.1 141.8 153.6 135.8 Z M 134.9 104.4 C 143.3 104.4 150.2 111.2 150.2 119.7 C 150.2 128.1 143.4 135 134.9 135 C 126.4 135 119.6 128.2 119.6 119.7 C 119.7 111.3 126.5 104.4 134.9 104.4 Z M 131.4 142 L 138.4 142 C 152.6 142 164.6 152.7 166.3 166.6 L 103.5 166.6 C 105.2 152.7 117.3 142 131.4 142 Z" id="path6" stroke="none" stroke-width="1" stroke-dasharray="" stroke-dashoffset="1" fill="#1B2D59" fill-opacity="1"/><path d=" M 82.7 142 L 59.3 142 C 52.2 142 46.4 136.2 46.4 129.1 L 46.4 105.2 L 56 114.8 C 56.9 115.7 58.1 116.2 59.3 116.2 C 60.5 116.2 61.7 115.7 62.6 114.8 C 64.4 113 64.4 110 62.6 108.2 L 45 90.5 C 43.2 88.7 40.2 88.7 38.4 90.5 L 20.8 108.1 C 19 109.9 19 112.9 20.8 114.7 C 22.6 116.5 25.6 116.5 27.4 114.7 L 37 105.1 L 37 129 C 37 141.3 47 151.3 59.3 151.3 L 82.8 151.3 C 85.4 151.3 87.5 149.2 87.5 146.6 C 87.5 144 85.3 142 82.7 142 Z" id="path8" stroke="none" stroke-width="1" stroke-dasharray="" stroke-dashoffset="1" fill="#1B2D59" fill-opacity="1"/><path d=" M 156.4 61.2 C 154.6 59.4 151.6 59.4 149.8 61.2 L 140.2 70.8 L 140.2 49.3 C 140.2 37 130.2 26.9 117.8 26.9 L 88.6 26.9 C 86 26.9 83.9 29 83.9 31.6 C 83.9 34.2 86 36.3 88.6 36.3 L 117.9 36.3 C 125.1 36.3 130.9 42.1 130.9 49.3 L 130.9 70.8 L 121.3 61.2 C 119.5 59.4 116.5 59.4 114.7 61.2 C 112.9 63 112.9 66 114.7 67.8 L 132.3 85.4 C 133.2 86.3 134.4 86.8 135.6 86.8 C 136.8 86.8 138 86.3 138.9 85.4 L 156.5 67.8 C 158.3 66 158.3 63 156.4 61.2 Z" id="path10" stroke="none" stroke-width="1" stroke-dasharray="" stroke-dashoffset="1" fill="#1B2D59" fill-opacity="1"/></svg>