<svg version="1.1" width="80" height="82" xmlns="http://www.w3.org/2000/svg" xmlns:xlink="http://www.w3.org/1999/xlink" id="svg4154" overflow="hidden"><defs id="defs4158"></defs><g id="g4" fill="#FFFFFF" fill-opacity="1" transform="matrix(1,0,0,1,-10,-9)"><path d=" M 87.8 50.9 L 60.9 33.2 L 60.9 19.9 C 60.9 13.9 56 9 50 9 C 44 9 39.1 13.9 39.1 19.9 L 39.1 33.1 L 12.2 50.9 C 10.8 51.8 10 53.4 10 55.1 L 10 61.5 C 10 63.1 10.8 64.6 12.1 65.6 C 13 66.2 14 66.5 15 66.5 C 15.5 66.5 16.1 66.4 16.6 66.2 L 39.1 58.8 L 39.1 69.3 L 30.8 75.1 C 29.5 76 28.7 77.6 28.7 79.2 L 28.7 86 C 28.7 87.6 29.5 89.2 30.8 90.1 C 31.7 90.7 32.7 91 33.7 91 C 34.3 91 34.8 90.9 35.4 90.7 L 50.1 85.4 L 64.7 90.3 C 65.2 90.5 65.8 90.6 66.3 90.6 C 67.3 90.6 68.4 90.3 69.2 89.7 C 70.5 88.8 71.3 87.2 71.3 85.6 L 71.3 79.2 C 71.3 77.6 70.5 76.1 69.2 75.1 L 60.9 69.3 L 60.9 58.8 L 83.4 66.2 C 83.9 66.4 84.4 66.5 85 66.5 C 86 66.5 87.1 66.2 87.9 65.6 C 89.2 64.7 90 63.2 90 61.5 L 90 55.1 C 90 53.4 89.2 51.8 87.8 50.9 Z M 85 61.5 L 55.9 51.9 L 55.9 71.9 L 66.3 79.2 L 66.3 85.6 L 50 80.1 L 33.7 86 L 33.7 79.2 L 44.1 71.9 L 44.1 51.9 L 15 61.5 L 15 55.1 L 44.1 35.9 L 44.1 19.9 C 44.1 16.6 46.8 14 50 14 C 53.2 14 55.9 16.7 55.9 19.9 L 55.9 35.8 L 85 55.1 L 85 61.5 Z" id="path6" stroke="none" stroke-width="1" stroke-dasharray="" stroke-dashoffset="1" fill="#1B2D59" fill-opacity="1"/></g></svg>