<svg version="1.1" width="57.6413" height="69.1695" xmlns="http://www.w3.org/2000/svg" xmlns:xlink="http://www.w3.org/1999/xlink" id="svg4291" overflow="hidden"><defs id="defs4295"></defs><g id="g4" fill="#E8D300" fill-opacity="1" transform="matrix(0.823446,0,0,0.823446,-12.3517,-790.807)"><path d=" M 66.6875 960.362 C 57.3399 963.52 50.0551 966.678 51.0937 980.362 C 60.4414 978.257 68.7648 972.994 66.6875 960.362 Z M 37 979.362 C 28 979.362 15 987.362 15 1002.36 C 15 1023.36 29 1044.36 37 1044.36 C 43 1044.36 48 1040.36 52 1040.36 C 56 1040.36 60 1044.36 66 1044.36 C 74 1044.36 83 1032.36 85 1021.36 C 78 1016.36 73 1013.36 73 1004.36 C 73 998.362 78 992.362 84 987.362 C 81 983.362 75 979.362 69 979.362 C 63 979.362 56.5479 984.109 52 984.362 C 48 984.362 43 979.362 37 979.362 Z" id="path6" color="#000000" stroke="none" fill="#E8D300" fill-opacity="1" visibility="visible" display="inline" overflow="visible"/></g></svg>