<svg version="1.1" width="27.5756" height="23.027" xmlns="http://www.w3.org/2000/svg" xmlns:xlink="http://www.w3.org/1999/xlink" id="svg4358" overflow="hidden"><defs id="defs4362"></defs><path d=" M 26.3532 13.6172 C 26.1826 13.3898 26.0973 13.1339 26.0973 12.8497 L 26.0973 11.2861 L 26.0973 10.8312 L 26.0973 2.13213 C 26.0973 0.966567 25.1592 0 23.9652 0 L 14.8396 0 L 6.90811 0 C 5.74254 0 4.77598 0.938138 4.77598 2.13213 L 4.77598 8.52853 L 4.77598 8.52853 L 4.77598 10.3764 L 6.87968 10.3764 L 6.87968 2.1037 C 6.87968 2.1037 6.87968 2.1037 6.87968 2.1037 L 13.8731 2.1037 L 23.9652 2.1037 C 23.9652 2.1037 23.9652 2.1037 23.9652 2.1037 L 23.9652 10.8312 L 23.9652 11.3998 L 23.9652 13.0202 L 12.7928 13.0202 L 12.6507 13.5319 C 12.6222 13.6456 12.6222 13.7594 12.5654 13.8731 L 11.5704 17.3982 L 26.1257 17.3982 C 26.9217 17.3982 27.5756 16.7443 27.5756 15.9483 L 27.5756 15.3229 C 27.5756 15.1808 27.5187 15.0671 27.4619 14.9534 L 26.3531 13.6172 Z M 17.7393 15.2945 C 17.7393 15.6925 17.3982 16.0336 17.0002 16.0336 L 13.8731 16.0336 C 13.4751 16.0336 13.1339 15.6925 13.1339 15.2945 L 13.1339 15.1239 L 17.7393 15.1239 L 17.7393 15.2945 Z M 13.5319 11.0302 C 13.7594 11.0302 13.9584 10.8312 13.9584 10.6038 L 13.9584 10.5469 C 13.9584 10.3195 13.7594 10.1205 13.5319 10.1205 L 12.2811 10.1205 L 11.4851 10.1205 L 11.1439 10.1205 L 10.6038 12.0252 C 10.4048 11.9115 10.2058 11.8547 9.94995 11.8547 L 1.47828 11.8547 C 1.08028 11.8547 0.71071 12.0252 0.483283 12.3379 C 0.227427 12.6507 0.142142 13.0486 0.255856 13.4466 L 1.39299 18.0805 C 1.53513 18.649 2.04685 19.047 2.64384 19.047 L 3.97998 19.047 L 8.6991 19.047 L 9.52352 19.047 C 9.80781 19.047 10.0352 19.2745 10.0352 19.5588 C 10.0352 19.843 9.80781 20.0705 9.52352 20.0705 L 4.34955 20.0705 C 4.34955 20.0705 4.32112 20.0705 4.29269 20.0705 L 1.47828 20.0705 C 1.44985 20.0705 1.44985 20.0705 1.42142 20.0705 C 0.625425 20.0989 0 20.7528 0 21.5487 C 0 22.3732 0.653854 23.027 1.47828 23.027 C 2.3027 23.027 2.95656 22.3732 2.95656 21.5487 C 2.95656 21.3782 2.92813 21.2076 2.87127 21.0655 L 3.92312 21.0655 L 6.79439 21.0655 C 6.73754 21.2076 6.70911 21.3782 6.70911 21.5487 C 6.70911 22.3732 7.36296 23.027 8.18739 23.027 C 9.01181 23.027 9.66566 22.3732 9.66566 21.5487 C 9.66566 21.3782 9.63724 21.2076 9.58038 21.0655 C 10.3764 21.0086 11.0018 20.3548 11.0018 19.5588 C 11.0018 18.848 10.5185 18.2511 9.86467 18.0805 L 11.1724 13.4751 C 11.2008 13.3898 11.2008 13.3329 11.2292 13.2476 L 11.8547 11.0302 L 13.5319 11.0302 Z M 1.47828 22.032 C 1.22242 22.032 0.994995 21.8046 0.994995 21.5487 C 0.994995 21.2929 1.22242 21.0655 1.47828 21.0655 C 1.73413 21.0655 1.96156 21.2929 1.96156 21.5487 C 1.96156 21.8046 1.76256 22.032 1.47828 22.032 Z M 8.21582 22.032 C 7.95996 22.032 7.73253 21.8046 7.73253 21.5487 C 7.73253 21.2929 7.95996 21.0655 8.21582 21.0655 C 8.47167 21.0655 8.6991 21.2929 8.6991 21.5487 C 8.6991 21.8046 8.5001 22.032 8.21582 22.032 Z M 1.19399 13.1908 C 1.16557 13.0771 1.22242 12.9918 1.25085 12.9349 C 1.27928 12.9065 1.36457 12.8212 1.47828 12.8212 L 2.3027 12.8212 L 2.53013 13.9584 L 1.39299 13.9584 L 1.19399 13.1908 Z M 1.62042 14.9818 L 2.72913 14.9818 L 2.95656 16.0336 L 1.9047 16.0336 L 1.62042 14.9818 Z M 2.61541 18.0236 C 2.47327 18.0236 2.35956 17.9383 2.33113 17.7962 L 2.13213 17.0286 L 3.15556 17.0286 L 3.35456 18.0236 L 2.61541 18.0236 Z M 5.17397 18.0236 L 4.40641 18.0236 L 4.20741 17.0286 L 5.2024 17.0286 L 5.2024 18.0236 Z M 5.17397 16.0336 L 3.97998 16.0336 L 3.75255 14.9818 L 5.17397 14.9818 L 5.17397 16.0336 Z M 5.17397 13.9868 L 3.52512 13.9868 L 3.2977 12.8497 L 5.17397 12.8497 L 5.17397 13.9868 Z M 6.87968 18.0236 L 6.16897 18.0236 L 6.16897 17.0286 L 7.07868 17.0286 L 6.87968 18.0236 Z M 7.30611 16.0336 L 6.16897 16.0336 L 6.16897 14.9818 L 7.53353 14.9818 L 7.30611 16.0336 Z M 6.16897 13.9868 L 6.16897 13.9868 L 6.16897 12.8497 L 8.01682 12.8497 L 7.76096 13.9868 L 6.16897 13.9868 Z M 8.92653 17.8246 C 8.8981 17.9383 8.78438 18.0236 8.64224 18.0236 L 7.87467 18.0236 L 8.1021 17.0286 L 9.15395 17.0286 L 8.92653 17.8246 Z M 9.43824 16.0336 L 8.32953 16.0336 L 8.55696 14.9818 L 9.72252 14.9818 L 9.43824 16.0336 Z M 10.2342 13.1908 L 10.0068 13.9868 L 8.78438 13.9868 L 9.04024 12.8497 L 9.97838 12.8497 C 10.0921 12.8497 10.1774 12.9349 10.2058 12.9634 C 10.2058 12.9918 10.2627 13.0771 10.2342 13.1908 Z" id="path6-4" fill="#E8D300" fill-opacity="1"/></svg>