<svg version="1.1" width="78.3" height="84.3" xmlns="http://www.w3.org/2000/svg" xmlns:xlink="http://www.w3.org/1999/xlink" id="svg4240" overflow="hidden"><defs id="defs4244"></defs><g id="g4" stroke="#E0D102" stroke-width="0.3" stroke-miterlimit="4" stroke-dasharray="" stroke-opacity="1" fill="#E0D102" fill-opacity="1" transform="matrix(1,0,0,1,-10.85,-960.212)"><path d=" M 49.9688 960.362 C 38.9993 960.362 30 968.937 30 980.112 C 30 982.818 30.6586 986.287 31.5625 988.675 C 37.0792 1000.18 42.6439 1011.7 48.1875 1023.21 C 48.5073 1023.89 49.2439 1024.36 50 1024.36 C 50.7561 1024.36 51.4927 1023.89 51.8125 1023.21 C 57.2895 1011.67 63.0071 1000.22 68.4375 988.675 C 69.3481 986.282 70 982.816 70 980.112 C 70 968.931 60.9383 960.362 49.9688 960.362 Z M 49.9688 964.362 C 58.8833 964.362 66 971.061 66 980.112 C 66 982.04 65.3271 985.465 64.6875 987.175 C 59.839 997.369 54.9027 1007.56 50 1017.74 C 45.2712 1007.48 39.9309 997.467 35.3125 987.175 C 34.6745 985.461 34 982.036 34 980.112 C 34 971.055 41.0543 964.362 49.9688 964.362 Z M 50 969.362 C 43.9486 969.362 39 974.311 39 980.362 C 39 986.414 43.9486 991.362 50 991.362 C 56.0515 991.362 61 986.413 61 980.362 C 61 974.311 56.0515 969.362 50 969.362 Z M 50 973.362 C 53.8897 973.362 57 976.473 57 980.362 C 57 984.252 53.8896 987.362 50 987.362 C 46.1105 987.362 43 984.252 43 980.362 C 43 976.473 46.1105 973.362 50 973.362 Z M 13 1000.36 C 11.8378 1000.36 11.0246 1001.46 11 1002.36 L 11 1042.36 C 11.0001 1043.41 11.9528 1044.36 13 1044.36 L 87 1044.36 C 88.0472 1044.36 88.9999 1043.41 89 1042.36 L 89 1002.36 C 88.9999 1001.32 88.0472 1000.36 87 1000.36 L 65.0313 1000.36 L 63.0938 1004.36 L 85 1004.36 L 85 1012.36 L 59.5625 1012.36 L 59.375 1012.11 L 57.4375 1016.11 L 76.8438 1040.36 L 46.9688 1040.36 L 34.5313 1024.8 L 43.2188 1017.46 L 41.4375 1013.77 L 32.0313 1021.71 L 18.1563 1004.36 L 36.9063 1004.36 L 34.9688 1000.36 L 13 1000.36 Z M 15 1006.8 L 41.8438 1040.36 L 15 1040.36 L 15 1006.8 Z M 62.75 1016.36 L 85 1016.36 L 85 1026.36 L 70.75 1026.36 L 62.75 1016.36 Z M 73.9688 1030.36 L 85 1030.36 L 85 1040.36 L 81.9688 1040.36 L 73.9688 1030.36 Z" id="path6" color="#000000" stroke="#E0D102" stroke-width="0.3" stroke-miterlimit="4" stroke-dasharray="" stroke-opacity="1" fill="#E0D102" fill-opacity="1" direction="ltr" visibility="visible" display="inline" overflow="visible"/></g></svg>