<svg version="1.1" width="24.5" height="22.5" xmlns="http://www.w3.org/2000/svg" xmlns:xlink="http://www.w3.org/1999/xlink" id="svg4221" overflow="hidden"><defs id="defs4225"></defs><g id="g8" stroke="#E8D300" stroke-width="0.5" stroke-miterlimit="4" stroke-dasharray="" stroke-opacity="1" fill="#E8D300" fill-rule="evenodd" fill-opacity="1" transform="matrix(1,0,0,1,0.25,-0.75)"><g id="g10" stroke="#E8D300" stroke-width="0.5" stroke-miterlimit="4" stroke-dasharray="" stroke-opacity="1" fill="#E8D300" fill-rule="nonzero" fill-opacity="1" transform="matrix(1,0,0,1,-72,-216)"><g id="g12" stroke="#E8D300" stroke-width="0.5" stroke-miterlimit="4" stroke-dasharray="" stroke-opacity="1" fill="#E8D300" fill-opacity="1" transform="matrix(1,0,0,1,72,217)"><path d=" M 21 5 L 21 1.5 C 21 0.671573 20.3284 0 19.5 0 L 1.5 0 C 0.671573 0 0 0.671573 0 1.5 L 0 14.5 C 0 15.3284 0.671573 16 1.5 16 L 15 16 L 15 15 L 1.5 15 C 1.22386 15 1 14.7761 1 14.5 L 1 1.5 C 1 1.22386 1.22386 1 1.5 1 L 19.5 1 C 19.7761 1 20 1.22386 20 1.5 L 20 5 L 21 5 Z" id="path14" stroke="#E8D300" stroke-width="0.5" stroke-miterlimit="4" stroke-dasharray="" stroke-opacity="1" fill="#E8D300" fill-opacity="1"/><path d=" M 0.5 12 L 0.5 13 L 14.5 13 L 14.5 12 Z" id="polygon16" stroke="#E8D300" stroke-width="0.5" stroke-miterlimit="4" stroke-dasharray="" stroke-opacity="1" fill="#E8D300" fill-opacity="1"/><path d=" M 6.5 19 L 14.5 19 C 14.7761 19 15 18.7761 15 18.5 C 15 18.2239 14.7761 18 14.5 18 L 6.5 18 C 6.22386 18 6 18.2239 6 18.5 C 6 18.7761 6.22386 19 6.5 19 Z" id="path18" stroke="#E8D300" stroke-width="0.5" stroke-miterlimit="4" stroke-dasharray="" stroke-opacity="1" fill="#E8D300" fill-opacity="1"/><path d=" M 8.97434 15.6581 L 8.02566 15.3419 L 7.02566 18.3419 L 7.97434 18.6581 Z" id="polygon20" stroke="#E8D300" stroke-width="0.5" stroke-miterlimit="4" stroke-dasharray="" stroke-opacity="1" fill="#E8D300" fill-opacity="1"/><path d=" M 12.9743 15.3419 L 12.0257 15.6581 L 13.0257 18.6581 L 13.9743 18.3419 Z" id="polygon22" stroke="#E8D300" stroke-width="0.5" stroke-miterlimit="4" stroke-dasharray="" stroke-opacity="1" fill="#E8D300" fill-opacity="1"/><path d=" M 15.5 5 C 15.2239 5 15 5.22386 15 5.5 L 15 20.5 C 15 20.7761 15.2239 21 15.5 21 L 22.5 21 C 22.7761 21 23 20.7761 23 20.5 L 23 5.5 C 23 5.22386 22.7761 5 22.5 5 L 15.5 5 Z M 15.5 4 L 22.5 4 C 23.3284 4 24 4.67157 24 5.5 L 24 20.5 C 24 21.3284 23.3284 22 22.5 22 L 15.5 22 C 14.6716 22 14 21.3284 14 20.5 L 14 5.5 C 14 4.67157 14.6716 4 15.5 4 Z" id="path24" stroke="#E8D300" stroke-width="0.5" stroke-miterlimit="4" stroke-dasharray="" stroke-opacity="1" fill="#E8D300" fill-opacity="1"/><path d=" M 15 18 L 23 18 L 23 7 L 15 7 L 15 18 Z M 14.5 6 L 23.5 6 C 23.7761 6 24 6.22386 24 6.5 L 24 18.5 C 24 18.7761 23.7761 19 23.5 19 L 14.5 19 C 14.2239 19 14 18.7761 14 18.5 L 14 6.5 C 14 6.22386 14.2239 6 14.5 6 Z" id="path26" stroke="#E8D300" stroke-width="0.5" stroke-miterlimit="4" stroke-dasharray="" stroke-opacity="1" fill="#E8D300" fill-opacity="1"/></g></g></g></svg>