<svg version="1.1" width="16.7211" height="23.1593" xmlns="http://www.w3.org/2000/svg" xmlns:xlink="http://www.w3.org/1999/xlink" id="svg4239" overflow="hidden"><defs id="defs4243"></defs><g id="g4207" transform="matrix(0.257326,0,0,0.257326,-4.50569,-1.28666)"><path d=" M 48.199 21.031 C 46.029 21.031 43.826 21.512 41.749 22.534 C 38.238 24.26 35.606 27.255 34.34 30.971 C 33.073 34.685 33.325 38.666 35.051 42.176 C 36.776 45.688 39.772 48.32 43.488 49.587 C 47.203 50.857 51.183 50.6 54.693 48.877 C 54.693 48.875 54.693 48.875 54.694 48.875 C 58.205 47.151 60.838 44.154 62.105 40.438 C 63.371 36.722 63.119 32.743 61.392 29.233 C 58.846 24.045 53.623 21.031 48.199 21.031 Z" id="path6" fill="none"/><path d=" M 63.217 57.988 C 62.568 56.668 62.894 55.075 64.011 54.114 C 72.409 46.907 74.866 34.939 69.987 25.007 C 64.089 13.011 49.524 8.046 37.53 13.942 C 31.727 16.792 27.378 21.744 25.285 27.882 C 23.192 34.022 23.61 40.598 26.462 46.399 C 31.34 56.33 42.314 61.698 53.149 59.452 C 53.368 59.406 53.587 59.385 53.805 59.385 C 55.017 59.385 56.151 60.068 56.701 61.188 L 69.149 86.515 C 70.032 88.31 72.21 89.052 74.008 88.175 C 75.8 87.292 76.544 85.113 75.662 83.316 L 63.217 57.988 Z M 57.542 54.67 C 54.606 56.114 51.441 56.843 48.257 56.843 C 45.957 56.843 43.648 56.463 41.404 55.697 C 36.056 53.875 31.742 50.083 29.257 45.024 C 26.769 39.965 26.405 34.235 28.228 28.886 C 30.052 23.539 33.843 19.226 38.902 16.739 C 49.36 11.596 62.051 15.923 67.188 26.384 C 69.676 31.441 70.04 37.173 68.217 42.522 C 66.393 47.87 62.602 52.185 57.542 54.67 Z" id="path8" fill="none"/><path d=" M 81.458 80.47 L 70.068 57.291 C 79.192 48.062 81.586 33.973 75.782 22.163 C 75.782 22.163 75.782 22.163 75.782 22.161 C 68.313 6.968 49.875 0.677 34.682 8.145 C 27.331 11.758 21.823 18.026 19.173 25.799 C 16.523 33.57 17.053 41.897 20.666 49.247 C 26.468 61.059 39.073 67.764 51.962 66.186 L 63.354 89.363 C 65.105 92.928 68.696 95 72.426 95 C 73.916 95 75.43 94.67 76.855 93.97 C 81.844 91.515 83.909 85.458 81.458 80.47 Z M 74.009 88.175 C 72.211 89.051 70.032 88.31 69.15 86.515 L 56.701 61.187 C 56.15 60.067 55.016 59.384 53.805 59.384 C 53.587 59.384 53.368 59.405 53.149 59.451 C 42.314 61.698 31.34 56.33 26.461 46.399 C 23.609 40.598 23.191 34.021 25.284 27.882 C 27.377 21.745 31.726 16.793 37.529 13.942 C 49.523 8.046 64.088 13.011 69.986 25.008 C 74.865 34.939 72.408 46.907 64.01 54.115 C 62.893 55.076 62.566 56.669 63.216 57.989 L 75.662 83.316 C 76.545 85.113 75.8 87.292 74.009 88.175 Z" id="path10" fill="#E8D300" fill-opacity="1"/><path d=" M 67.188 26.385 C 62.051 15.924 49.36 11.596 38.902 16.74 C 33.843 19.226 30.052 23.54 28.228 28.887 C 26.405 34.236 26.769 39.966 29.257 45.025 C 31.741 50.084 36.055 53.876 41.404 55.698 C 43.648 56.463 45.957 56.844 48.257 56.844 C 51.441 56.844 54.606 56.115 57.542 54.671 C 62.602 52.187 66.393 47.871 68.217 42.524 C 70.04 37.174 69.676 31.442 67.188 26.385 Z M 62.106 40.438 C 60.839 44.154 58.206 47.151 54.695 48.875 C 54.694 48.875 54.694 48.875 54.694 48.877 C 51.184 50.601 47.204 50.857 43.489 49.587 C 39.773 48.32 36.777 45.688 35.052 42.176 C 33.325 38.666 33.073 34.685 34.341 30.971 C 35.607 27.255 38.239 24.26 41.75 22.534 C 43.827 21.512 46.029 21.031 48.2 21.031 C 53.624 21.031 58.847 24.045 61.394 29.232 C 63.12 32.743 63.372 36.722 62.106 40.438 Z" id="path12" fill="#E8D300" fill-opacity="1"/></g></svg>