<svg version="1.1" width="85.8547" height="78.7574" xmlns="http://www.w3.org/2000/svg" xmlns:xlink="http://www.w3.org/1999/xlink" id="svg4207" overflow="hidden"><defs id="defs4211"></defs><path d=" M 78.2871 1.25 L 7.56761 1.25 C 4.08385 1.25 1.25 4.08486 1.25 7.56761 L 1.25 71.1898 C 1.25 74.6736 4.08486 77.5074 7.56761 77.5074 L 78.2871 77.5074 C 81.7709 77.5074 84.6047 74.6726 84.6047 71.1898 L 84.6047 7.56761 C 84.6047 4.08385 81.7709 1.25 78.2871 1.25 Z M 23.1756 72.9834 L 7.56761 72.9834 C 6.57804 72.9834 5.77402 72.1794 5.77402 71.1898 L 5.77402 25.5451 L 23.1746 25.5451 L 23.1746 72.9834 Z M 80.0807 71.1898 C 80.0807 72.1794 79.2767 72.9834 78.2871 72.9834 L 27.6996 72.9834 L 27.6996 25.5451 L 80.0797 25.5451 L 80.0797 71.1898 Z M 80.0807 21.021 L 5.77402 21.021 L 5.77402 7.56761 C 5.77402 6.57804 6.57804 5.77402 7.56761 5.77402 L 78.2871 5.77402 C 79.2767 5.77402 80.0807 6.57804 80.0807 7.56761 L 80.0807 21.021 Z M 72.8384 10.0375 C 71.0327 10.0375 69.5625 11.5076 69.5625 13.3134 C 69.5625 15.1191 71.0327 16.5893 72.8384 16.5893 C 74.6442 16.5893 76.1143 15.1191 76.1143 13.3134 C 76.1143 11.5076 74.6442 10.0375 72.8384 10.0375 Z M 62.6994 10.0375 C 60.8937 10.0375 59.4235 11.5076 59.4235 13.3134 C 59.4235 15.1191 60.8937 16.5893 62.6994 16.5893 C 64.5052 16.5893 65.9753 15.1191 65.9753 13.3134 C 65.9753 11.5076 64.5052 10.0375 62.6994 10.0375 Z M 52.5604 10.0375 C 50.7547 10.0375 49.2845 11.5076 49.2845 13.3134 C 49.2845 15.1191 50.7547 16.5893 52.5604 16.5893 C 54.3662 16.5893 55.8363 15.1191 55.8363 13.3134 C 55.8363 11.5076 54.3662 10.0375 52.5604 10.0375 Z" id="path4" stroke="#E0D102" stroke-width="2.5" stroke-miterlimit="4" stroke-dasharray="" stroke-opacity="1" fill="#E0D102" fill-opacity="1"/></svg>